<svg width="22" height="22" viewBox="0 0 22 22" fill="none" xmlns="http://www.w3.org/2000/svg">
<path id="Vector (Stroke)" fill-rule="evenodd" clip-rule="evenodd" d="M9.625 2.0625C5.44835 2.0625 2.0625 5.44835 2.0625 9.625C2.0625 13.8017 5.44835 17.1875 9.625 17.1875C11.7136 17.1875 13.6028 16.3422 14.9725 14.9725C16.3422 13.6028 17.1875 11.7136 17.1875 9.625C17.1875 5.44835 13.8017 2.0625 9.625 2.0625ZM0 9.625C0 4.30926 4.30926 0 9.625 0C14.9407 0 19.25 4.30926 19.25 9.625C19.25 11.911 18.4521 14.012 17.1211 15.6627L21.698 20.2395C22.1007 20.6423 22.1007 21.2952 21.698 21.698C21.2952 22.1007 20.6423 22.1007 20.2395 21.698L15.6627 17.1211C14.012 18.4521 11.911 19.25 9.625 19.25C4.30926 19.25 0 14.9407 0 9.625Z" fill="#1C1C1C" fill-opacity="0.6"/>
</svg>
